<svg width="86" height="86" viewBox="0 0 86 86" fill="none" xmlns="http://www.w3.org/2000/svg">
<path d="M78.4414 4.76276H7.55859C3.39079 4.76276 0 8.15354 0 12.3214V59.0625C0 63.2303 3.39079 66.6211 7.55859 66.6211H33.0049V76.198H29.2109C27.8195 76.198 26.6914 77.3261 26.6914 78.7175C26.6914 80.109 27.8195 81.2371 29.2109 81.2371H56.7892C58.1807 81.2371 59.3088 80.109 59.3088 78.7175C59.3088 77.3261 58.1807 76.198 56.7892 76.198H52.9953V66.6211H78.4414C82.6092 66.6211 86 63.2303 86 59.0625V12.3214C86 8.15354 82.6092 4.76276 78.4414 4.76276ZM47.9561 76.1982H38.0439V66.6213H47.9561V76.1982ZM80.9609 59.0627C80.9609 60.452 79.8307 61.5822 78.4414 61.5822H7.55859C6.16932 61.5822 5.03906 60.452 5.03906 59.0627V55.2325H80.9609V59.0627ZM80.9609 50.1934H5.03906V12.3214C5.03906 10.9321 6.16932 9.80182 7.55859 9.80182H78.4414C79.8307 9.80182 80.9609 10.9321 80.9609 12.3214V50.1934Z" fill="#8655FF"/>
<path d="M30.6163 36.4311L23.7912 31.7715L30.6163 27.1119C31.7655 26.3273 32.0612 24.7596 31.2766 23.6104C30.4922 22.4613 28.9244 22.1657 27.7751 22.9501L17.9021 29.6905C17.2144 30.16 16.8032 30.9389 16.8032 31.7713C16.8032 32.6038 17.2144 33.383 17.9021 33.8524L27.7751 40.5929C28.2096 40.8897 28.7041 41.0318 29.1934 41.0318C29.998 41.0318 30.7888 40.6471 31.2766 39.9326C32.0612 38.7833 31.7655 37.2157 30.6163 36.4311Z" fill="#8655FF"/>
<path d="M68.0976 29.6908L58.2246 22.9504C57.0755 22.166 55.5079 22.4616 54.7231 23.6107C53.9385 24.7599 54.2341 26.3276 55.3834 27.1122L62.2085 31.7718L55.3834 36.4311C54.2341 37.2157 53.9385 38.7833 54.7231 39.9325C55.2111 40.6473 56.0015 41.0317 56.8063 41.0317C57.2955 41.0317 57.79 40.8895 58.2246 40.5928L68.0976 33.8524C68.7853 33.3829 69.1965 32.6041 69.1965 31.7716C69.1965 30.9392 68.7851 30.1605 68.0976 29.6908Z" fill="#8655FF"/>
<path d="M49.2916 20.5789C48.0788 19.8971 46.5426 20.3274 45.8606 21.5406L35.7459 39.534C35.0643 40.7467 35.4948 42.2828 36.7078 42.9647C37.0982 43.1843 37.522 43.2884 37.9401 43.2884C38.8209 43.2884 39.6762 42.8256 40.1386 42.0031L50.2533 24.0098C50.9353 22.7969 50.5046 21.2608 49.2916 20.5789Z" fill="#8655FF"/>
</svg>
