<svg width="86" height="105" viewBox="0 0 86 105" fill="none" xmlns="http://www.w3.org/2000/svg">
<path d="M83.8631 102.209H74.3479L80.9602 72.373C81.444 70.1152 79.6699 68.0186 77.4121 68.0186H74.3479C73.864 66.0833 72.4126 64.6318 70.4773 63.9867L51.6081 58.8259C51.6081 58.5033 51.6081 58.3421 51.6081 58.0195V52.8587C55.9625 50.117 59.0267 45.6013 59.8331 40.4405C63.865 39.9567 67.0905 36.4086 67.0905 32.2155C67.0905 30.2802 66.4454 28.5062 65.3165 27.216V17.3782C65.3165 11.411 61.4459 5.92763 55.8012 3.99232L47.2536 1.08937C44.1894 -0.0395558 40.8026 -0.0395558 37.7384 1.08937L29.1908 3.99232C23.5462 5.92763 19.6756 11.411 19.6756 17.5394V27.3772C18.5466 28.8287 17.9015 30.4415 17.9015 32.3768C17.9015 36.5699 21.1271 40.118 25.1589 40.6018C25.804 45.9239 29.0295 50.4396 33.384 53.02V58.1808V58.9872L14.3535 64.148C12.4182 64.7931 10.9667 66.4058 10.4829 68.1799H7.41866C5.16081 68.1799 3.38678 70.2764 3.8706 72.5343L10.4829 102.37H1.2902C0.645101 102.37 0 102.854 0 103.66C0 104.467 0.483826 104.951 1.2902 104.951H83.8631C84.5082 104.951 85.1533 104.467 85.1533 103.66C85.1533 102.854 84.5082 102.209 83.8631 102.209ZM50.1566 27.3772C52.2532 27.3772 54.0272 29.1513 54.0272 31.2478C54.0272 33.3444 52.2532 35.1184 50.1566 35.1184C48.06 35.1184 46.286 33.3444 46.286 31.2478C46.286 29.1513 48.06 27.3772 50.1566 27.3772ZM50.1566 24.9581C47.8987 24.9581 45.9634 26.087 44.8345 27.8611C43.383 27.0547 41.9316 27.0547 40.4801 27.8611C39.3512 26.087 37.4158 24.9581 35.158 24.9581C33.0614 24.9581 31.2874 25.9258 30.1585 27.5385L27.7393 25.7645C27.7393 25.6032 27.7393 24.7968 27.7393 24.9581C27.7393 20.6037 31.7712 20.9262 34.8354 20.9262H42.7379C46.7698 20.9262 49.5115 18.9909 51.1242 17.3782C52.737 25.2807 57.414 25.7645 57.7365 25.9258L55.4787 27.6998C54.1885 25.9258 52.2532 24.9581 50.1566 24.9581ZM35.158 27.3772C37.2546 27.3772 39.0286 29.1513 39.0286 31.2478C39.0286 33.3444 37.2546 35.1184 35.158 35.1184C33.0614 35.1184 31.2874 33.3444 31.2874 31.2478C31.2874 29.1513 32.9001 27.3772 35.158 27.3772ZM59.9944 38.0214V26.5709C62.5748 27.0547 64.6714 29.4738 64.6714 32.3768C64.6714 35.1184 62.7361 37.3763 59.9944 38.0214ZM22.256 17.3782C22.256 12.3786 25.4815 7.86293 30.1585 6.25018L38.706 3.34722C41.2864 2.54085 44.0281 2.54085 46.6085 3.34722L55.1561 6.25018C59.8331 7.86293 63.0586 12.3786 63.0586 17.3782V25.1194C62.091 24.6356 60.8008 24.1517 59.6718 23.9904C58.8654 23.3453 54.0272 24.1517 53.2208 14.1527C53.2208 13.6688 52.737 13.185 52.2532 13.0237C51.7693 12.8625 51.1242 13.185 50.963 13.6688C50.963 13.6688 48.3826 18.3458 42.7379 18.3458H34.8354C30.3197 17.7007 25.804 19.3135 25.3202 23.8292C24.5138 23.9904 22.9011 24.4743 22.4173 24.7968V17.3782H22.256ZM20.4819 32.2155C20.4819 29.3125 22.7398 27.0547 25.1589 26.4096V37.8601C22.5785 37.3763 20.4819 35.1184 20.4819 32.2155ZM27.5781 38.0214V28.6674L28.8683 29.6351C28.707 30.1189 28.707 30.6027 28.707 31.0866C28.707 34.6346 31.6099 37.3763 34.9967 37.3763C38.5448 37.3763 41.2865 34.4733 41.2865 31.0866C41.2865 30.6027 41.2864 30.2802 41.1252 29.7964C42.0928 29.3125 42.8992 29.3125 43.7056 29.7964C43.7056 30.1189 43.5443 30.6027 43.5443 30.9253C43.5443 34.4733 46.4473 37.215 49.834 37.215C53.3821 37.215 56.1238 34.3121 56.1238 30.9253C56.1238 30.4415 56.1238 30.1189 55.9625 29.6351L57.2527 28.6674V37.6988C57.2527 45.6013 51.1242 52.0523 43.5443 52.5362C35.158 53.8264 27.5781 46.8915 27.5781 38.0214ZM49.1889 54.1489V58.0195C49.1889 61.5676 46.286 64.6318 42.5767 64.6318C38.8673 64.6318 35.9644 61.5676 35.9644 58.0195V54.1489C39.9962 55.9229 44.9958 55.9229 49.1889 54.1489ZM15.3211 66.2446L34.0291 61.0838C35.3193 64.4705 38.5448 67.0509 42.5767 67.0509C46.4473 67.0509 49.834 64.6318 51.1242 61.0838L69.8322 66.2446C70.7998 66.5671 71.4449 67.2122 71.9287 68.0186H13.3858C13.8697 67.2122 14.5148 66.5671 15.3211 66.2446ZM13.3858 102.209L6.61228 71.8892C6.45101 71.0828 6.93483 70.4377 7.74121 70.4377H77.4121C78.2185 70.4377 78.7023 71.0828 78.541 71.8892L71.7675 102.209H13.3858Z" fill="#8655FF"/>
<path d="M69.3484 20.1198V22.8615C69.3484 23.5066 69.8322 24.1517 70.6386 24.1517C71.445 24.1517 71.9288 23.6678 71.9288 22.8615V20.1198C71.9288 19.4747 71.445 18.8296 70.6386 18.8296C69.8322 18.8296 69.3484 19.3134 69.3484 20.1198Z" fill="#8655FF"/>
<path d="M64.3487 2.86343C63.8649 3.34726 63.8649 4.15363 64.3487 4.63746C66.9291 7.21786 68.5419 10.4434 69.187 14.1527C69.3482 14.7978 69.8321 15.1203 70.3159 15.1203H70.4772C71.1223 14.9591 71.6061 14.314 71.4448 13.6689C70.6384 9.63699 68.8644 5.92766 65.9615 3.02471C65.4776 2.37961 64.8325 2.37961 64.3487 2.86343Z" fill="#8655FF"/>
<path d="M21.7721 43.5047C21.6108 42.8596 20.9657 42.537 20.3206 42.6983C19.6755 42.8596 19.353 43.5047 19.5142 44.1498C20.1593 46.5689 21.127 48.9881 22.5785 51.0846C22.901 51.5685 23.7074 51.7297 24.1912 51.4072C24.675 51.0846 24.8363 50.2783 24.5138 49.7944C23.3848 47.8591 22.4172 45.7626 21.7721 43.5047Z" fill="#8655FF"/>
<path d="M26.4492 55.6004C26.933 56.0843 27.7394 56.0843 28.2232 55.6004C28.7071 55.1166 28.7071 54.3102 28.2232 53.8264C27.7394 53.3426 27.4169 53.02 26.933 52.5362C26.4492 52.0524 25.6428 52.0524 25.159 52.5362C24.6752 53.02 24.6752 53.8264 25.159 54.3102C25.4816 54.6328 25.9654 55.1166 26.4492 55.6004Z" fill="#8655FF"/>
<path d="M42.5767 46.7304C44.0282 46.7304 45.3184 46.2465 46.2861 45.1176C46.7699 44.6338 46.7699 43.8274 46.2861 43.3436C45.8022 42.8598 44.9959 42.8598 44.512 43.3436C43.3831 44.4725 41.6091 44.4725 40.4802 43.3436C39.9963 42.8598 39.19 42.8598 38.7061 43.3436C38.2223 43.8274 38.2223 44.6338 38.7061 45.1176C39.8351 46.2465 41.1253 46.7304 42.5767 46.7304Z" fill="#8655FF"/>
<path d="M42.5767 41.5695C43.2218 41.5695 43.8669 41.0857 43.8669 40.2793V37.6989C43.8669 37.0538 43.3831 36.4087 42.5767 36.4087C41.7703 36.4087 41.4478 37.0538 41.4478 37.6989V40.2793C41.4478 40.9244 41.9316 41.5695 42.5767 41.5695Z" fill="#8655FF"/>
<path d="M80.4764 93.3387L80.1538 94.9515C79.9925 95.5966 80.4764 96.2417 81.1215 96.403C81.7666 96.5642 82.4117 96.0804 82.5729 95.4353L82.8955 93.8226C83.0568 93.1775 82.5729 92.5324 81.9278 92.3711C81.2827 92.3711 80.6376 92.6936 80.4764 93.3387Z" fill="#8655FF"/>
<path d="M84.9921 78.0176C84.347 77.8563 83.7018 78.3401 83.5406 78.9852L81.2827 89.1456C81.1214 89.7907 81.6053 90.4358 82.2504 90.597C82.8955 90.7583 83.5406 90.2745 83.7019 89.6294L85.9597 79.4691C86.121 78.824 85.7984 78.1789 84.9921 78.0176Z" fill="#8655FF"/>
<path d="M28.3846 74.4697H12.7409C12.4183 74.4697 12.0958 74.631 11.7732 74.9536C11.612 75.2761 11.4507 75.5986 11.612 75.9212L14.8375 90.2747C14.9987 90.7585 15.4826 91.2423 15.9664 91.2423H16.2889C16.934 91.0811 17.4179 90.436 17.2566 89.7909L14.3536 76.8889H28.3846C29.0297 76.8889 29.6748 76.405 29.6748 75.5987C29.6748 74.7923 29.191 74.4697 28.3846 74.4697Z" fill="#8655FF"/>
<path d="M18.2241 93.9838C18.0628 93.3387 17.4177 92.8548 16.7726 93.0161C16.1275 93.1774 15.6437 93.8225 15.8049 94.4676L16.1275 96.2416C16.2888 96.7255 16.7726 97.2093 17.2564 97.2093H17.579C18.2241 97.048 18.7079 96.4029 18.5466 95.7578L18.2241 93.9838Z" fill="#8655FF"/>
<path d="M42.5765 80.2756C38.8672 80.2756 35.803 83.3399 35.803 87.0492C35.803 90.7585 38.8672 93.8228 42.5765 93.8228C46.2859 93.8228 49.3501 90.7585 49.3501 87.0492C49.3501 83.3399 46.2859 80.2756 42.5765 80.2756ZM42.5765 91.4036C40.1574 91.4036 38.2221 89.4683 38.2221 87.0492C38.2221 84.6301 40.1574 82.6948 42.5765 82.6948C44.9957 82.6948 46.931 84.6301 46.931 87.0492C46.931 89.4683 44.9957 91.4036 42.5765 91.4036Z" fill="#8655FF"/>
</svg>
