<svg width="86" height="85" viewBox="0 0 86 85" fill="none" xmlns="http://www.w3.org/2000/svg">
<path d="M81.1645 67.3157H4.83555C2.16955 67.3157 0 65.1461 0 62.4821V11.8672C0 9.20119 2.16955 7.03359 4.83555 7.03359H14.4441C14.9835 7.03359 15.4214 7.47141 15.4214 8.01087C15.4214 8.55032 14.9835 8.98814 14.4441 8.98814H4.83555C3.2465 8.98814 1.95455 10.2801 1.95455 11.8672V62.4801C1.95455 64.0672 3.2465 65.3592 4.83555 65.3592H81.1625C82.7515 65.3592 84.0435 64.0672 84.0435 62.4801V11.8672C84.0435 10.2801 82.7515 8.98814 81.1625 8.98814H71.5559C71.0165 8.98814 70.5786 8.55032 70.5786 8.01087C70.5786 7.47141 71.0165 7.03359 71.5559 7.03359H81.1645C83.8305 7.03359 86 9.20314 86 11.8672V62.4801C86 65.1461 83.8305 67.3157 81.1645 67.3157ZM85.0227 55.907H0.977273C0.437818 55.907 0 55.4692 0 54.9297C0 54.3903 0.437818 53.9525 0.977273 53.9525H85.0227C85.5622 53.9525 86 54.3903 86 54.9297C86 55.4692 85.5622 55.907 85.0227 55.907ZM36.806 76.0173C36.2666 76.0173 35.8288 75.5795 35.8288 75.04V66.3365C35.8288 65.797 36.2666 65.3592 36.806 65.3592C37.3455 65.3592 37.7833 65.797 37.7833 66.3365V75.04C37.7833 75.5815 37.3455 76.0173 36.806 76.0173ZM49.194 76.0173C48.6545 76.0173 48.2167 75.5795 48.2167 75.04V66.3365C48.2167 65.797 48.6545 65.3592 49.194 65.3592C49.7334 65.3592 50.1712 65.797 50.1712 66.3365V75.04C50.1712 75.5815 49.7334 76.0173 49.194 76.0173ZM64.76 84.7444H21.24C20.7006 84.7444 20.2628 84.3066 20.2628 83.7671C20.2628 78.4175 24.6155 74.0647 29.9651 74.0647H56.0329C61.3825 74.0647 65.7353 78.4175 65.7353 83.7671C65.7372 84.3066 65.2994 84.7444 64.76 84.7444ZM22.2799 82.7898H63.7221C63.2413 78.9765 59.9772 76.0193 56.0349 76.0193H29.9671C26.0248 76.0193 22.7607 78.9785 22.2799 82.7898ZM21.4433 7.8115C20.7006 7.8115 20.1005 7.2095 20.1005 6.46873C20.1005 5.726 20.7025 5.12596 21.4433 5.12596C22.186 5.12596 22.7861 5.72796 22.7861 6.46873C22.788 7.2095 22.186 7.8115 21.4433 7.8115ZM26.7401 7.8115C25.9974 7.8115 25.3974 7.2095 25.3974 6.46873C25.3974 5.726 25.9994 5.12596 26.7401 5.12596C27.4829 5.12596 28.0829 5.72796 28.0829 6.46873C28.0849 7.2095 27.4829 7.8115 26.7401 7.8115ZM32.037 7.8115C31.2942 7.8115 30.6942 7.2095 30.6942 6.46873C30.6942 5.726 31.2962 5.12596 32.037 5.12596C32.7797 5.12596 33.3797 5.72796 33.3797 6.46873C33.3817 7.2095 32.7797 7.8115 32.037 7.8115ZM69.2515 50.3659H16.7485C14.9386 50.3659 13.4668 48.896 13.4668 47.0861V3.72846C13.4668 1.9205 14.9386 0.44873 16.7465 0.44873H69.2515C71.0595 0.44873 72.5312 1.9205 72.5312 3.72846V47.0881C72.5332 48.896 71.0614 50.3659 69.2515 50.3659ZM16.7465 2.40328C16.0155 2.40328 15.4214 2.99746 15.4214 3.72846V47.0881C15.4214 47.8191 16.0155 48.4133 16.7485 48.4133H69.2515C69.9825 48.4133 70.5786 47.8191 70.5786 47.0881V3.72846C70.5786 2.99746 69.9845 2.40328 69.2535 2.40328H16.7465ZM71.5559 12.4887H14.4441C13.9046 12.4887 13.4668 12.0509 13.4668 11.5115C13.4668 10.972 13.9046 10.5342 14.4441 10.5342H71.5559C72.0954 10.5342 72.5332 10.972 72.5332 11.5115C72.5332 12.0509 72.0954 12.4887 71.5559 12.4887ZM54.0451 35.5191C51.2501 35.5191 48.975 33.2441 48.975 30.4491C48.975 27.6541 51.2501 25.379 54.0451 25.379C56.8401 25.379 59.1152 27.6541 59.1152 30.4491C59.1152 33.2441 56.8401 35.5191 54.0451 35.5191ZM54.0451 27.3355C52.3271 27.3355 50.9296 28.733 50.9296 30.451C50.9296 32.1691 52.3271 33.5666 54.0451 33.5666C55.7632 33.5666 57.1607 32.1691 57.1607 30.451C57.1607 28.733 55.7632 27.3355 54.0451 27.3355ZM55.8785 43.0422H52.2098C51.6704 43.0422 51.2325 42.6044 51.2325 42.0649V39.653C50.6423 39.4732 50.0715 39.2367 49.5262 38.9455L47.8199 40.6518C47.6362 40.8355 47.388 40.9371 47.128 40.9371C46.868 40.9371 46.6198 40.8335 46.4361 40.6518L43.8424 38.0581C43.6587 37.8744 43.557 37.6261 43.557 37.3662C43.557 37.1062 43.6606 36.858 43.8424 36.6743L45.5487 34.968C45.2575 34.4226 45.021 33.8519 44.8412 33.2616H42.4293C41.8898 33.2616 41.452 32.8238 41.452 32.2844V28.6157C41.452 28.0762 41.8898 27.6384 42.4293 27.6384H44.8412C45.021 27.0481 45.2575 26.4774 45.5487 25.9321L43.8424 24.2258C43.6587 24.042 43.557 23.7938 43.557 23.5339C43.557 23.2739 43.6606 23.0257 43.8424 22.842L46.4361 20.2483C46.6198 20.0646 46.868 19.9629 47.128 19.9629C47.388 19.9629 47.6362 20.0665 47.8199 20.2483L49.5262 21.9546C50.0715 21.6634 50.6423 21.4269 51.2325 21.247V18.8351C51.2325 18.2957 51.6704 17.8579 52.2098 17.8579H55.8785C56.418 17.8579 56.8558 18.2957 56.8558 18.8351V21.247C57.446 21.4269 58.0168 21.6634 58.5621 21.9546L60.2684 20.2483C60.6495 19.8671 61.2691 19.8671 61.6503 20.2483L64.244 22.842C64.6251 23.2231 64.6251 23.8427 64.244 24.2238L62.5376 25.9301C62.8289 26.4755 63.0654 27.0462 63.2452 27.6365H65.659C66.1985 27.6365 66.6363 28.0743 66.6363 28.6137V32.2824C66.6363 32.8219 66.1985 33.2597 65.659 33.2597H63.2452C63.0654 33.85 62.8289 34.4207 62.5376 34.966L64.244 36.6723C64.6251 37.0535 64.6251 37.673 64.244 38.0542L61.6503 40.6479C61.2691 41.029 60.6495 41.029 60.2684 40.6479L58.5621 38.9415C58.0168 39.2328 57.446 39.4693 56.8558 39.6491V42.061C56.8558 42.6044 56.418 43.0422 55.8785 43.0422ZM53.1871 41.0876H54.9012V38.8966C54.9012 38.4373 55.2218 38.0385 55.6713 37.9408C56.5665 37.7473 57.4148 37.3955 58.1888 36.8971C58.5758 36.6469 59.084 36.7016 59.4084 37.028L60.9584 38.578L62.1702 37.3662L60.6202 35.8162C60.2938 35.4918 60.241 34.9836 60.4893 34.5966C60.9877 33.8226 61.3395 32.9743 61.533 32.0791C61.6307 31.6296 62.0275 31.309 62.4888 31.309H64.6798V29.5949H62.4888C62.0295 29.5949 61.6307 29.2744 61.533 28.8248C61.3395 27.9296 60.9877 27.0814 60.4893 26.3074C60.241 25.9204 60.2938 25.4122 60.6202 25.0877L62.1702 23.5378L60.9584 22.326L59.4084 23.8759C59.084 24.2004 58.5738 24.2551 58.1888 24.0069C57.4148 23.5085 56.5665 23.1566 55.6713 22.9631C55.2218 22.8654 54.9012 22.4686 54.9012 22.0074V19.8163H53.1871V22.0074C53.1871 22.4667 52.8665 22.8654 52.417 22.9631C51.5218 23.1566 50.6735 23.5085 49.8995 24.0069C49.5125 24.2551 49.0044 24.2023 48.6799 23.8759L47.13 22.326L45.9181 23.5378L47.4681 25.0877C47.7945 25.4122 47.8473 25.9204 47.599 26.3074C47.1006 27.0814 46.7488 27.9296 46.5553 28.8248C46.4576 29.2744 46.0608 29.5949 45.5995 29.5949H43.4085V31.309H45.5995C46.0589 31.309 46.4576 31.6296 46.5553 32.0791C46.7488 32.9743 47.1006 33.8226 47.599 34.5966C47.8473 34.9836 47.7945 35.4918 47.4681 35.8162L45.9181 37.3662L47.13 38.578L48.6799 37.028C49.0044 36.7036 49.5145 36.6489 49.8995 36.8971C50.6735 37.3955 51.5218 37.7473 52.417 37.9408C52.8665 38.0385 53.1871 38.4353 53.1871 38.8966V41.0876ZM22.1802 25.9595H20.341C19.8015 25.9595 19.3637 25.5216 19.3637 24.9822C19.3637 24.4427 19.8015 24.0049 20.341 24.0049H22.1802C22.7196 24.0049 23.1575 24.4427 23.1575 24.9822C23.1575 25.5216 22.7196 25.9595 22.1802 25.9595ZM36.724 31.4244H27.862C27.3226 31.4244 26.8848 30.9865 26.8848 30.4471C26.8848 29.9076 27.3226 29.4698 27.862 29.4698H36.724C37.2634 29.4698 37.7012 29.9076 37.7012 30.4471C37.7012 30.9865 37.2634 31.4244 36.724 31.4244ZM24.383 31.4244H20.341C19.8015 31.4244 19.3637 30.9865 19.3637 30.4471C19.3637 29.9076 19.8015 29.4698 20.341 29.4698H24.383C24.9224 29.4698 25.3602 29.9076 25.3602 30.4471C25.3602 30.9865 24.9224 31.4244 24.383 31.4244ZM36.724 36.8912H29.7384C29.199 36.8912 28.7611 36.4534 28.7611 35.914C28.7611 35.3745 29.199 34.9367 29.7384 34.9367H36.724C37.2634 34.9367 37.7012 35.3745 37.7012 35.914C37.7012 36.4534 37.2634 36.8912 36.724 36.8912ZM26.2593 36.8912H20.341C19.8015 36.8912 19.3637 36.4534 19.3637 35.914C19.3637 35.3745 19.8015 34.9367 20.341 34.9367H26.2593C26.7988 34.9367 27.2366 35.3745 27.2366 35.914C27.2366 36.4534 26.7988 36.8912 26.2593 36.8912ZM36.724 42.3561H33.2175C32.678 42.3561 32.2402 41.9183 32.2402 41.3789C32.2402 40.8394 32.678 40.4016 33.2175 40.4016H36.724C37.2634 40.4016 37.7012 40.8394 37.7012 41.3789C37.7012 41.9183 37.2634 42.3561 36.724 42.3561ZM29.9378 42.3561H20.341C19.8015 42.3561 19.3637 41.9183 19.3637 41.3789C19.3637 40.8394 19.8015 40.4016 20.341 40.4016H29.9378C30.4772 40.4016 30.915 40.8394 30.915 41.3789C30.915 41.9183 30.4772 42.3561 29.9378 42.3561ZM36.724 25.9595H25.8586C25.3192 25.9595 24.8814 25.5216 24.8814 24.9822C24.8814 24.4427 25.3192 24.0049 25.8586 24.0049H36.724C37.2634 24.0049 37.7012 24.4427 37.7012 24.9822C37.7012 25.5216 37.2634 25.9595 36.724 25.9595ZM36.724 20.4985H33.3973C32.8579 20.4985 32.42 20.0606 32.42 19.5212C32.42 18.9817 32.8579 18.5439 33.3973 18.5439H36.724C37.2634 18.5439 37.7012 18.9817 37.7012 19.5212C37.7012 20.0606 37.2634 20.4985 36.724 20.4985ZM29.9182 20.4985H20.341C19.8015 20.4985 19.3637 20.0606 19.3637 19.5212C19.3637 18.9817 19.8015 18.5439 20.341 18.5439H29.9182C30.4577 18.5439 30.8955 18.9817 30.8955 19.5212C30.8955 20.0606 30.4577 20.4985 29.9182 20.4985ZM65.8995 7.446H44.0418C43.5023 7.446 43.0645 7.00818 43.0645 6.46873C43.0645 5.92928 43.5023 5.49146 44.0418 5.49146H65.8995C66.4389 5.49146 66.8767 5.92928 66.8767 6.46873C66.8767 7.00818 66.4389 7.446 65.8995 7.446Z" fill="#8655FF"/>
</svg>
