<svg width="86" height="72" viewBox="0 0 86 72" fill="none" xmlns="http://www.w3.org/2000/svg">
<path d="M28.6018 32.0457C28.057 32.0457 27.629 31.6176 27.629 31.0728V26.6366C27.629 26.0919 28.057 25.6638 28.6018 25.6638C29.1466 25.6638 29.5747 26.0919 29.5747 26.6366V31.0728C29.5747 31.5982 29.1466 32.0457 28.6018 32.0457ZM19.8462 32.0457C19.3014 32.0457 18.8733 31.6176 18.8733 31.0728V26.3059C18.8733 25.7611 19.3014 25.333 19.8462 25.333C20.391 25.333 20.819 25.7611 20.819 26.3059V31.0728C20.819 31.5982 20.391 32.0457 19.8462 32.0457ZM24.438 29.419C22.7842 29.419 21.1109 28.6213 19.2041 27.0452C16.5385 24.8271 14.943 21.6362 14.9235 18.5036H16.8692C16.8887 21.0719 18.2118 23.6986 20.4493 25.5471C23.6403 28.1932 25.4887 28.1348 28.6796 25.2552C30.6448 23.4846 31.8317 21.1109 31.9095 18.7371C31.929 18.2118 32.3765 17.7837 32.9018 17.7837C33.4466 17.7837 33.8747 18.2312 33.8552 18.7566V18.776C33.7579 21.6751 32.3376 24.5547 29.9833 26.6756C27.9792 28.5045 26.2086 29.419 24.438 29.419ZM32.8824 19.7294C32.8434 19.7294 32.7851 19.7294 32.7462 19.7294C32.3376 19.671 32.0068 19.3597 31.929 18.9706C31.1701 15.3905 25.4109 13.0362 21.2276 13.6005C19.1068 13.8923 16.6357 14.9624 16.8692 18.4452C16.8887 18.8733 16.6357 19.2819 16.2271 19.4181C15.8186 19.5543 15.371 19.4181 15.1181 19.0679C13.114 16.2466 13.8534 12.7638 14.476 10.9543C15.0403 9.31991 15.8769 8.96968 16.8498 8.71674C17.5113 8.54163 18.2118 8.34706 19.2041 6.98507C19.243 6.94615 19.2624 6.90724 19.3014 6.86833C21.033 5.11719 23.1733 4.28054 25.4887 4.4362C28.0765 4.61131 30.6643 6.09005 32.3765 8.38597C36.5014 13.8729 33.8941 19.0095 33.7774 19.2235C33.5828 19.5348 33.252 19.7294 32.8824 19.7294ZM22.5701 11.5575C26.3643 11.5575 30.5864 13.2308 32.6683 16.0131C32.8629 14.3593 32.6489 12.005 30.8005 9.53394C29.419 7.68552 27.376 6.49864 25.333 6.36244C23.6403 6.2457 22.0448 6.86833 20.7217 8.17195C19.3403 10.0398 18.1534 10.3706 17.3557 10.5846C16.733 10.7403 16.5968 10.7792 16.3244 11.5769C16.052 12.3747 15.7602 13.5226 15.7602 14.7484C16.733 13.0946 18.5231 12.005 20.9941 11.6742C21.4805 11.5964 22.0253 11.5575 22.5701 11.5575ZM33.3299 47.1443C32.7851 47.1443 32.357 46.7163 32.357 46.1715V41.3851C32.357 40.8403 32.7851 40.4122 33.3299 40.4122C33.8747 40.4122 34.3027 40.8403 34.3027 41.3851V46.1715C34.3027 46.6968 33.8747 47.1443 33.3299 47.1443ZM15.1181 47.1443C14.5733 47.1443 14.1452 46.7163 14.1452 46.1715V41.3851C14.1452 40.8403 14.5733 40.4122 15.1181 40.4122C15.6629 40.4122 16.091 40.8403 16.091 41.3851V46.1715C16.091 46.6968 15.6629 47.1443 15.1181 47.1443ZM41.0154 47.1443C40.529 47.1443 40.1009 46.7747 40.0425 46.2688L39.3226 38.7195C38.8946 34.3027 37.2018 32.0457 34.2443 32.0457H28.5824C28.0376 32.0457 27.6095 31.6176 27.6095 31.0728C27.6095 30.5281 28.0376 30.1 28.5824 30.1H34.2443C38.2525 30.1 40.743 33.0964 41.2683 38.5249L41.9882 46.0742C42.0466 46.5995 41.638 47.086 41.1127 47.1249C41.0932 47.1443 41.0543 47.1443 41.0154 47.1443ZM7.43258 47.1443C7.39367 47.1443 7.37421 47.1443 7.33529 47.1443C6.80996 47.086 6.40136 46.619 6.45973 46.0937L7.17964 38.5443C7.41312 36.1511 7.919 34.3416 8.75566 32.9991C9.94253 31.0923 11.752 30.1195 14.1258 30.1195H19.8462C20.391 30.1195 20.819 30.5475 20.819 31.0923C20.819 31.6371 20.391 32.0652 19.8462 32.0652H14.1258C11.0905 32.0652 9.55339 34.1276 9.12534 38.7389L8.40543 46.2882C8.34706 46.7552 7.919 47.1443 7.43258 47.1443ZM24.224 35.8204C23.9905 35.8204 23.7765 35.7425 23.5819 35.5869L19.2041 31.8122C18.7955 31.462 18.7566 30.8394 19.1068 30.4308C19.457 30.0222 20.0796 29.9833 20.4882 30.3335L24.224 33.5633L27.9597 30.3335C28.3683 29.9833 28.991 30.0222 29.3412 30.4308C29.6914 30.8394 29.6525 31.4425 29.2439 31.8122L24.8661 35.5869C24.6715 35.7425 24.4575 35.8204 24.224 35.8204ZM85.0272 56.2891H0.972851C0.428054 56.2891 0 55.8611 0 55.3163V0.972851C0 0.428054 0.428054 0 0.972851 0H85.0272C85.5719 0 86 0.428054 86 0.972851V55.3163C86 55.8611 85.5525 56.2891 85.0272 56.2891ZM1.9457 54.3434H84.0543V1.9457H1.9457V54.3434ZM49.1484 64.8502C48.6036 64.8502 48.1756 64.4222 48.1756 63.8774V55.3163C48.1756 54.7715 48.6036 54.3434 49.1484 54.3434C49.6932 54.3434 50.1213 54.7715 50.1213 55.3163V63.8774C50.1213 64.4222 49.6932 64.8502 49.1484 64.8502ZM36.8321 64.8502C36.2873 64.8502 35.8593 64.4222 35.8593 63.8774V55.3163C35.8593 54.7715 36.2873 54.3434 36.8321 54.3434C37.3769 54.3434 37.805 54.7715 37.805 55.3163V63.8774C37.805 64.4222 37.3769 64.8502 36.8321 64.8502ZM65.0448 71.1932H20.9357C20.391 71.1932 19.9629 70.7652 19.9629 70.2204V63.8968C19.9629 63.352 20.391 62.924 20.9357 62.924H65.0448C65.5896 62.924 66.0177 63.352 66.0177 63.8968V70.2204C66.0177 70.7457 65.5896 71.1932 65.0448 71.1932ZM21.9086 69.2475H64.072V64.8697H21.9086V69.2475ZM85.0272 47.1443H0.972851C0.428054 47.1443 0 46.7163 0 46.1715C0 45.6267 0.428054 45.1986 0.972851 45.1986H85.0272C85.5719 45.1986 86 45.6267 86 46.1715C86 46.7163 85.5525 47.1443 85.0272 47.1443ZM56.3281 40.49C55.7833 40.49 55.3552 40.062 55.3552 39.5172V30.1778H52.9231V39.5172C52.9231 40.062 52.495 40.49 51.9502 40.49C51.4054 40.49 50.9774 40.062 50.9774 39.5172V29.205C50.9774 28.6602 51.4054 28.2321 51.9502 28.2321H56.3281C56.8729 28.2321 57.3009 28.6602 57.3009 29.205V39.5172C57.3009 40.062 56.8534 40.49 56.3281 40.49ZM66.3484 40.49C65.8036 40.49 65.3756 40.062 65.3756 39.5172V18.7371H62.9434V39.5366C62.9434 40.0814 62.5154 40.5095 61.9706 40.5095C61.4258 40.5095 60.9977 40.0814 60.9977 39.5366V17.7643C60.9977 17.2195 61.4258 16.7914 61.9706 16.7914H66.3484C66.8932 16.7914 67.3213 17.2195 67.3213 17.7643V39.5366C67.3213 40.062 66.8738 40.49 66.3484 40.49ZM76.3688 40.49C75.824 40.49 75.3959 40.062 75.3959 39.5172V27.0842H72.9638V39.5172C72.9638 40.062 72.5358 40.49 71.991 40.49C71.4462 40.49 71.0181 40.062 71.0181 39.5172V26.1113C71.0181 25.5665 71.4462 25.1385 71.991 25.1385H76.3688C76.9136 25.1385 77.3416 25.5665 77.3416 26.1113V39.5172C77.3416 40.062 76.8941 40.49 76.3688 40.49ZM80.1629 40.49H48.1561C47.6113 40.49 47.1833 40.062 47.1833 39.5172C47.1833 38.9724 47.6113 38.5443 48.1561 38.5443H80.1629C80.7077 38.5443 81.1357 38.9724 81.1357 39.5172C81.1357 40.062 80.6882 40.49 80.1629 40.49Z" fill="#8655FF"/>
</svg>
