<svg width="86" height="86" viewBox="0 0 86 86" fill="none" xmlns="http://www.w3.org/2000/svg">
<g clip-path="url(#clip0_45_1678)">
<path d="M64.5394 11.9607C63.8828 11.3058 62.8197 11.3058 62.1648 11.9607C61.5082 12.6173 61.5082 13.6804 62.1648 14.337C62.8197 14.9919 63.8828 14.9919 64.5394 14.337C65.1943 13.6804 65.1943 12.6173 64.5394 11.9607Z" fill="#8655FF"/>
<path d="M83.5378 11.9602L74.0395 2.46236C70.7584 -0.818912 65.4471 -0.822607 62.1649 2.4622C62.1649 2.4622 11.2745 53.1077 9.22461 55.7136C9.22344 55.7151 9.22209 55.7166 9.22092 55.7181C9.21874 55.721 9.21622 55.7239 9.21403 55.7267C6.12122 59.6491 3.96802 64.314 2.98641 69.2171L0.0326741 83.9914C-0.0775137 84.5418 0.0948227 85.1112 0.491734 85.5081C0.890156 85.9062 1.46041 86.0772 2.00849 85.9672C3.69289 85.6302 14.9544 83.3774 16.7827 83.0118C21.6844 82.0323 26.3492 79.8796 30.2708 76.7877C32.8822 74.7364 79.3976 27.9759 83.537 23.8354C86.8206 20.5545 86.8211 15.2438 83.5378 11.9602ZM53.8522 15.5228L57.4141 19.0853L17.9147 58.5849C16.6052 59.8944 14.4738 59.8945 13.1642 58.5849C12.7728 58.1933 12.493 57.7257 12.3339 57.2107C13.8367 55.4037 12.0798 57.3545 53.8522 15.5228ZM59.7887 21.4608L64.5392 26.2113L25.0401 65.7103C23.7304 67.0201 21.5996 67.0199 20.2897 65.7103C19.655 65.0755 19.3053 64.232 19.3053 63.335C19.3053 62.4381 19.655 61.5945 20.2897 60.9598L59.7887 21.4608ZM3.81987 82.1798L4.84297 77.063L8.93655 81.1564L3.81987 82.1798ZM16.1243 79.7184L12.8946 80.3644L5.63444 73.1045L6.27995 69.8756C6.96459 66.4547 8.28953 63.165 10.1508 60.2175C10.345 60.4792 10.5573 60.728 10.7892 60.9599C12.1438 62.3145 14.0075 63.0313 15.9614 62.9094C15.8396 64.8693 16.5506 66.7213 17.9147 68.0852C19.2764 69.4469 21.1445 70.1569 23.0906 70.0345C22.9736 71.8939 23.6223 73.7926 25.0399 75.2104C25.2719 75.4424 25.5206 75.6547 25.7823 75.8491C22.8341 77.7108 19.5446 79.0351 16.1243 79.7184ZM30.7129 71.912C30.098 72.527 29.4535 73.1139 28.7895 73.6661C28.2745 73.5069 27.8065 73.2272 27.4152 72.8357C26.1055 71.526 26.1055 69.3952 27.4152 68.0854L66.9144 28.5861L70.4771 32.1479L30.7129 71.912ZM81.1628 21.4605L77.6011 25.0233L69.2888 16.7112C68.6329 16.0554 67.5699 16.0554 66.9138 16.7112C66.258 17.3669 66.258 18.4303 66.9138 19.0863L75.2262 27.3987L72.8518 29.7731L68.1023 25.0248C68.102 25.0245 68.1018 25.0243 68.1015 25.024L56.2272 13.1482L64.54 4.83694C66.5083 2.86734 69.6938 2.86683 71.6646 4.83745L81.1629 14.3354C83.1327 16.3052 83.134 19.4906 81.1628 21.4605Z" fill="#8655FF"/>
<path d="M38.3051 82.6246H28.2292C27.3018 82.6246 26.5498 83.3766 26.5498 84.304C26.5498 85.2313 27.3018 85.9833 28.2292 85.9833H38.3051C39.2325 85.9833 39.9845 85.2313 39.9845 84.304C39.9845 83.3766 39.2325 82.6246 38.3051 82.6246Z" fill="#8655FF"/>
<path d="M58.457 82.6246H48.381C47.4537 82.6246 46.7017 83.3766 46.7017 84.304C46.7017 85.2313 47.4537 85.9833 48.381 85.9833H58.457C59.3843 85.9833 60.1363 85.2313 60.1363 84.304C60.1363 83.3766 59.3843 82.6246 58.457 82.6246Z" fill="#8655FF"/>
<path d="M78.6086 82.6246H68.5326C67.6053 82.6246 66.8533 83.3766 66.8533 84.304C66.8533 85.2313 67.6053 85.9833 68.5326 85.9833H78.6086C79.5359 85.9833 80.2879 85.2313 80.2879 84.304C80.2879 83.3766 79.5359 82.6246 78.6086 82.6246Z" fill="#8655FF"/>
</g>
<defs>
<clipPath id="clip0_45_1678">
<rect width="86" height="86" fill="white"/>
</clipPath>
</defs>
</svg>
